<svg width="344" height="106" viewBox="0 0 344 106" fill="none" xmlns="http://www.w3.org/2000/svg">
    <g filter="url(#filter0_iiiii_622_423)">
        <path
            d="M5.00095 24.6913C5.00095 12.3534 15.0028 2.35155 27.3407 2.35155L85.5415 2.35155C97.8794 2.35155 107.881 12.3534 107.881 24.6913V82.8921C107.881 95.23 97.8794 105.232 85.5415 105.232H27.3407C15.0028 105.232 5.00095 95.23 5.00095 82.8921L5.00095 24.6913Z"
            fill="#292929" />
        <path
            d="M27.0467 105.232C6.58825 105.232 0.297852 89.9468 0.297852 80.2466C18.0325 52.8119 58.7339 0 79.6626 0C100.591 0 107.881 14.1093 107.881 21.4579V82.3042C97.2993 87.0073 89.3628 97.5893 85.8355 105.232H27.0467Z"
            fill="#292929" />
    </g>
    <g filter="url(#filter1_iiiii_622_423)">
        <path
            d="M0 23.4503C0 10.4991 10.499 0 23.4503 0L79.43 0C92.3812 0 102.88 10.499 102.88 23.4503V79.43C102.88 92.3812 92.3813 102.88 79.43 102.88H23.4503C10.4991 102.88 0 92.3813 0 79.43L0 23.4503Z"
            fill="#323232" />
    </g>
    <g filter="url(#filter2_diiiii_622_423)">
        <path
            d="M56.8972 21.997C61.8629 21.997 66.2541 22.9686 70.0708 24.9118C73.8874 26.855 76.8217 29.5838 78.8737 33.0981C80.9667 36.571 82.0132 40.5608 82.0132 45.0673C82.0132 48.7884 81.3566 52.1579 80.0433 55.1761C78.7301 58.1529 76.8012 60.5096 74.2568 62.246C71.7123 63.9825 68.6549 64.8508 65.0845 64.8508C62.8273 64.8508 60.8985 64.4373 59.298 63.6104C57.7385 62.7835 56.6099 61.6052 55.9122 60.0754C54.8862 61.6879 53.5114 62.9282 51.7878 63.7965C50.1052 64.6234 48.1763 65.0368 46.0012 65.0368C43.0054 65.0368 40.6661 64.1686 38.9835 62.4321C37.3009 60.6956 36.4596 58.2563 36.4596 55.1141C36.4596 52.1786 37.0341 49.4085 38.1832 46.8038C39.3323 44.1991 40.9329 42.1112 42.9848 40.5401C45.0368 38.9277 47.335 38.1214 49.8794 38.1214C51.562 38.1214 52.9574 38.4729 54.0654 39.1757C55.2145 39.8786 55.9943 40.8295 56.4047 42.0285L57.0203 38.4315H67.6084L65.2076 52.1373C65.0845 52.6748 65.0229 53.1916 65.0229 53.6877C65.0229 55.2588 65.6796 56.0443 66.9928 56.0443C68.6344 56.0443 69.8656 55.0521 70.6864 53.0675C71.5482 51.0416 71.9791 48.4989 71.9791 45.4394C71.9791 42.5867 71.3019 40.0853 69.9477 37.9354C68.6344 35.7441 66.7466 34.049 64.2842 32.85C61.8629 31.651 59.0107 31.0515 55.7275 31.0515C51.2953 31.0515 47.2324 32.1471 43.5389 34.3384C39.8864 36.4883 36.9931 39.4238 34.8591 43.1448C32.7661 46.8245 31.7195 50.8349 31.7195 55.1761C31.7195 59.8894 33.0738 63.6311 35.7824 66.4012C38.491 69.1713 42.2051 70.5563 46.9246 70.5563C51.1106 70.5563 54.9273 69.8121 58.3746 68.3237L60.7138 76.9441C56.4457 78.8459 51.6441 79.7969 46.309 79.7969C41.4253 79.7969 37.1367 78.8253 33.4432 76.8821C29.7497 74.9389 26.8974 72.1688 24.8865 68.5718C22.8756 65.0161 21.8701 60.8817 21.8701 56.1684C21.8701 49.5946 23.4091 43.7236 26.487 38.5556C29.565 33.3461 33.7715 29.2943 39.1066 26.4002C44.4417 23.4647 50.3719 21.997 56.8972 21.997ZM50.495 55.4862C51.521 55.4862 52.4444 55.0314 53.2652 54.1218C54.127 53.2122 54.5579 52.0753 54.5579 50.7109C54.5579 49.76 54.3117 49.0158 53.8192 48.4783C53.3267 47.8994 52.6906 47.61 51.9109 47.61C50.8439 47.61 49.9 48.0855 49.0792 49.0364C48.2584 49.946 47.848 51.1037 47.848 52.5094C47.848 53.419 48.0737 54.1425 48.5251 54.68C49.0176 55.2175 49.6742 55.4862 50.495 55.4862Z"
            fill="#C8C8C8" />
    </g>
    <g filter="url(#filter3_iiiii_622_423)">
        <path
            d="M155.078 41.182C156.617 38.9527 158.496 37.1783 160.715 35.859C162.933 34.4941 165.243 33.8116 167.642 33.8116V49.9854H163.364C160.511 49.9854 158.406 50.4859 157.047 51.4868C155.734 52.4877 155.078 54.2621 155.078 56.8098V72.5742H140V34.0846H155.078V41.182Z"
            fill="#323232" />
        <path
            d="M208.787 52.9882C208.787 54.0346 208.719 55.0355 208.583 55.9909H184.336C184.563 59.3121 185.944 60.9727 188.479 60.9727C190.109 60.9727 191.286 60.222 192.011 58.7207H207.972C207.428 61.4504 206.274 63.9072 204.508 66.091C202.787 68.2293 200.591 69.9354 197.92 71.2093C195.294 72.4377 192.396 73.0519 189.226 73.0519C185.423 73.0519 182.027 72.2557 179.039 70.6633C176.096 69.071 173.786 66.7962 172.111 63.8389C170.481 60.8362 169.666 57.333 169.666 53.3294C169.666 49.3258 170.481 45.8453 172.111 42.8881C173.786 39.8854 176.096 37.5878 179.039 35.9955C182.027 34.4031 185.423 33.6069 189.226 33.6069C193.03 33.6069 196.403 34.4031 199.346 35.9955C202.334 37.5423 204.644 39.7716 206.274 42.6833C207.949 45.5951 208.787 49.03 208.787 52.9882ZM193.505 49.3713C193.505 48.0974 193.098 47.1419 192.283 46.505C191.468 45.8226 190.449 45.4814 189.226 45.4814C186.555 45.4814 184.993 46.778 184.54 49.3713H193.505Z"
            fill="#323232" />
        <path
            d="M228.633 39.3394C229.584 37.5651 230.942 36.1774 232.708 35.1765C234.519 34.1301 236.67 33.6069 239.16 33.6069C242.148 33.6069 244.842 34.4031 247.242 35.9955C249.642 37.5423 251.521 39.8171 252.879 42.8198C254.283 45.7771 254.985 49.2803 254.985 53.3294C254.985 57.3785 254.283 60.9045 252.879 63.9072C251.521 66.8644 249.642 69.1392 247.242 70.7316C244.842 72.2784 242.148 73.0519 239.16 73.0519C236.67 73.0519 234.519 72.5514 232.708 71.5505C230.942 70.5041 229.584 69.0937 228.633 67.3194V91H213.555V34.0846H228.633V39.3394ZM239.703 53.3294C239.703 51.2821 239.183 49.6897 238.141 48.5523C237.1 47.4149 235.764 46.8462 234.134 46.8462C232.504 46.8462 231.168 47.4149 230.127 48.5523C229.086 49.6897 228.565 51.2821 228.565 53.3294C228.565 55.3767 229.086 56.9691 230.127 58.1065C231.168 59.2439 232.504 59.8126 234.134 59.8126C235.764 59.8126 237.1 59.2439 238.141 58.1065C239.183 56.9691 239.703 55.3767 239.703 53.3294Z"
            fill="#323232" />
        <path d="M274.795 22.0737V72.5742H259.718V22.0737H274.795Z" fill="#323232" />
        <path
            d="M279.568 53.3294C279.568 49.2803 280.247 45.7771 281.605 42.8198C283.009 39.8171 284.91 37.5423 287.31 35.9955C289.71 34.4031 292.404 33.6069 295.392 33.6069C297.883 33.6069 300.033 34.1301 301.845 35.1765C303.656 36.1774 305.037 37.5651 305.987 39.3394V34.0846H320.997V72.5742H305.987V67.3194C305.037 69.0937 303.656 70.5041 301.845 71.5505C300.033 72.5514 297.883 73.0519 295.392 73.0519C292.404 73.0519 289.71 72.2784 287.31 70.7316C284.91 69.1392 283.009 66.8644 281.605 63.9072C280.247 60.9045 279.568 57.3785 279.568 53.3294ZM305.987 53.3294C305.987 51.2821 305.467 49.6897 304.425 48.5523C303.384 47.4149 302.048 46.8462 300.418 46.8462C298.788 46.8462 297.453 47.4149 296.411 48.5523C295.37 49.6897 294.849 51.2821 294.849 53.3294C294.849 55.3767 295.37 56.9691 296.411 58.1065C297.453 59.2439 298.788 59.8126 300.418 59.8126C302.048 59.8126 303.384 59.2439 304.425 58.1065C305.467 56.9691 305.987 55.3767 305.987 53.3294Z"
            fill="#323232" />
        <path
            d="M335.374 31.0136C332.748 31.0136 330.643 30.3085 329.058 28.8981C327.473 27.4877 326.681 25.7134 326.681 23.5751C326.681 21.3913 327.473 19.5942 329.058 18.1838C330.643 16.7279 332.748 16 335.374 16C337.955 16 340.038 16.7279 341.623 18.1838C343.208 19.5942 344 21.3913 344 23.5751C344 25.7134 343.208 27.4877 341.623 28.8981C340.038 30.3085 337.955 31.0136 335.374 31.0136ZM342.845 34.0846V72.5742H327.768V34.0846H342.845Z"
            fill="#323232" />
    </g>
    <defs>
        <filter id="filter0_iiiii_622_423" x="0.297852" y="-31" width="107.583" height="176.232"
            filterUnits="userSpaceOnUse" color-interpolation-filters="sRGB">
            <feFlood flood-opacity="0" result="BackgroundImageFix" />
            <feBlend mode="normal" in="SourceGraphic" in2="BackgroundImageFix" result="shape" />
            <feColorMatrix in="SourceAlpha" type="matrix"
                values="0 0 0 0 0 0 0 0 0 0 0 0 0 0 0 0 0 0 127 0" result="hardAlpha" />
            <feOffset dy="54" />
            <feGaussianBlur stdDeviation="20" />
            <feComposite in2="hardAlpha" operator="arithmetic" k2="-1" k3="1" />
            <feColorMatrix type="matrix" values="0 0 0 0 1 0 0 0 0 1 0 0 0 0 1 0 0 0 0.5 0" />
            <feBlend mode="overlay" in2="shape" result="effect1_innerShadow_622_423" />
            <feColorMatrix in="SourceAlpha" type="matrix"
                values="0 0 0 0 0 0 0 0 0 0 0 0 0 0 0 0 0 0 127 0" result="hardAlpha" />
            <feOffset dy="-30" />
            <feGaussianBlur stdDeviation="30" />
            <feComposite in2="hardAlpha" operator="arithmetic" k2="-1" k3="1" />
            <feColorMatrix type="matrix" values="0 0 0 0 0 0 0 0 0 0 0 0 0 0 0 0 0 0 0.5 0" />
            <feBlend mode="overlay" in2="effect1_innerShadow_622_423"
                result="effect2_innerShadow_622_423" />
            <feColorMatrix in="SourceAlpha" type="matrix"
                values="0 0 0 0 0 0 0 0 0 0 0 0 0 0 0 0 0 0 127 0" result="hardAlpha" />
            <feOffset dy="5" />
            <feGaussianBlur stdDeviation="5" />
            <feComposite in2="hardAlpha" operator="arithmetic" k2="-1" k3="1" />
            <feColorMatrix type="matrix" values="0 0 0 0 1 0 0 0 0 1 0 0 0 0 1 0 0 0 0.5 0" />
            <feBlend mode="overlay" in2="effect2_innerShadow_622_423"
                result="effect3_innerShadow_622_423" />
            <feColorMatrix in="SourceAlpha" type="matrix"
                values="0 0 0 0 0 0 0 0 0 0 0 0 0 0 0 0 0 0 127 0" result="hardAlpha" />
            <feOffset dy="-134" />
            <feGaussianBlur stdDeviation="15.5" />
            <feComposite in2="hardAlpha" operator="arithmetic" k2="-1" k3="1" />
            <feColorMatrix type="matrix" values="0 0 0 0 0 0 0 0 0 0 0 0 0 0 0 0 0 0 0.15 0" />
            <feBlend mode="overlay" in2="effect3_innerShadow_622_423"
                result="effect4_innerShadow_622_423" />
            <feColorMatrix in="SourceAlpha" type="matrix"
                values="0 0 0 0 0 0 0 0 0 0 0 0 0 0 0 0 0 0 127 0" result="hardAlpha" />
            <feOffset dy="20" />
            <feGaussianBlur stdDeviation="10" />
            <feComposite in2="hardAlpha" operator="arithmetic" k2="-1" k3="1" />
            <feColorMatrix type="matrix" values="0 0 0 0 1 0 0 0 0 1 0 0 0 0 1 0 0 0 0.25 0" />
            <feBlend mode="overlay" in2="effect4_innerShadow_622_423"
                result="effect5_innerShadow_622_423" />
        </filter>
        <filter id="filter1_iiiii_622_423" x="0" y="-30" width="102.88" height="172.88"
            filterUnits="userSpaceOnUse" color-interpolation-filters="sRGB">
            <feFlood flood-opacity="0" result="BackgroundImageFix" />
            <feBlend mode="normal" in="SourceGraphic" in2="BackgroundImageFix" result="shape" />
            <feColorMatrix in="SourceAlpha" type="matrix"
                values="0 0 0 0 0 0 0 0 0 0 0 0 0 0 0 0 0 0 127 0" result="hardAlpha" />
            <feOffset dy="54" />
            <feGaussianBlur stdDeviation="20" />
            <feComposite in2="hardAlpha" operator="arithmetic" k2="-1" k3="1" />
            <feColorMatrix type="matrix" values="0 0 0 0 1 0 0 0 0 1 0 0 0 0 1 0 0 0 0.5 0" />
            <feBlend mode="overlay" in2="shape" result="effect1_innerShadow_622_423" />
            <feColorMatrix in="SourceAlpha" type="matrix"
                values="0 0 0 0 0 0 0 0 0 0 0 0 0 0 0 0 0 0 127 0" result="hardAlpha" />
            <feOffset dy="-30" />
            <feGaussianBlur stdDeviation="30" />
            <feComposite in2="hardAlpha" operator="arithmetic" k2="-1" k3="1" />
            <feColorMatrix type="matrix" values="0 0 0 0 0 0 0 0 0 0 0 0 0 0 0 0 0 0 0.5 0" />
            <feBlend mode="overlay" in2="effect1_innerShadow_622_423"
                result="effect2_innerShadow_622_423" />
            <feColorMatrix in="SourceAlpha" type="matrix"
                values="0 0 0 0 0 0 0 0 0 0 0 0 0 0 0 0 0 0 127 0" result="hardAlpha" />
            <feOffset dy="5" />
            <feGaussianBlur stdDeviation="5" />
            <feComposite in2="hardAlpha" operator="arithmetic" k2="-1" k3="1" />
            <feColorMatrix type="matrix" values="0 0 0 0 1 0 0 0 0 1 0 0 0 0 1 0 0 0 0.5 0" />
            <feBlend mode="overlay" in2="effect2_innerShadow_622_423"
                result="effect3_innerShadow_622_423" />
            <feColorMatrix in="SourceAlpha" type="matrix"
                values="0 0 0 0 0 0 0 0 0 0 0 0 0 0 0 0 0 0 127 0" result="hardAlpha" />
            <feOffset dy="-134" />
            <feGaussianBlur stdDeviation="15.5" />
            <feComposite in2="hardAlpha" operator="arithmetic" k2="-1" k3="1" />
            <feColorMatrix type="matrix" values="0 0 0 0 0 0 0 0 0 0 0 0 0 0 0 0 0 0 0.15 0" />
            <feBlend mode="overlay" in2="effect3_innerShadow_622_423"
                result="effect4_innerShadow_622_423" />
            <feColorMatrix in="SourceAlpha" type="matrix"
                values="0 0 0 0 0 0 0 0 0 0 0 0 0 0 0 0 0 0 127 0" result="hardAlpha" />
            <feOffset dy="20" />
            <feGaussianBlur stdDeviation="10" />
            <feComposite in2="hardAlpha" operator="arithmetic" k2="-1" k3="1" />
            <feColorMatrix type="matrix" values="0 0 0 0 1 0 0 0 0 1 0 0 0 0 1 0 0 0 0.25 0" />
            <feBlend mode="overlay" in2="effect4_innerShadow_622_423"
                result="effect5_innerShadow_622_423" />
        </filter>
        <filter id="filter2_diiiii_622_423" x="17.8701" y="-8.00299" width="68.1436" height="107.8"
            filterUnits="userSpaceOnUse" color-interpolation-filters="sRGB">
            <feFlood flood-opacity="0" result="BackgroundImageFix" />
            <feColorMatrix in="SourceAlpha" type="matrix"
                values="0 0 0 0 0 0 0 0 0 0 0 0 0 0 0 0 0 0 127 0" result="hardAlpha" />
            <feOffset dy="4" />
            <feGaussianBlur stdDeviation="2" />
            <feComposite in2="hardAlpha" operator="out" />
            <feColorMatrix type="matrix" values="0 0 0 0 0 0 0 0 0 0 0 0 0 0 0 0 0 0 0.25 0" />
            <feBlend mode="normal" in2="BackgroundImageFix" result="effect1_dropShadow_622_423" />
            <feBlend mode="normal" in="SourceGraphic" in2="effect1_dropShadow_622_423"
                result="shape" />
            <feColorMatrix in="SourceAlpha" type="matrix"
                values="0 0 0 0 0 0 0 0 0 0 0 0 0 0 0 0 0 0 127 0" result="hardAlpha" />
            <feOffset dy="20" />
            <feGaussianBlur stdDeviation="20" />
            <feComposite in2="hardAlpha" operator="arithmetic" k2="-1" k3="1" />
            <feColorMatrix type="matrix" values="0 0 0 0 1 0 0 0 0 1 0 0 0 0 1 0 0 0 0.5 0" />
            <feBlend mode="overlay" in2="shape" result="effect2_innerShadow_622_423" />
            <feColorMatrix in="SourceAlpha" type="matrix"
                values="0 0 0 0 0 0 0 0 0 0 0 0 0 0 0 0 0 0 127 0" result="hardAlpha" />
            <feOffset dy="-30" />
            <feGaussianBlur stdDeviation="30" />
            <feComposite in2="hardAlpha" operator="arithmetic" k2="-1" k3="1" />
            <feColorMatrix type="matrix" values="0 0 0 0 0 0 0 0 0 0 0 0 0 0 0 0 0 0 0.5 0" />
            <feBlend mode="overlay" in2="effect2_innerShadow_622_423"
                result="effect3_innerShadow_622_423" />
            <feColorMatrix in="SourceAlpha" type="matrix"
                values="0 0 0 0 0 0 0 0 0 0 0 0 0 0 0 0 0 0 127 0" result="hardAlpha" />
            <feOffset dy="5" />
            <feGaussianBlur stdDeviation="7.5" />
            <feComposite in2="hardAlpha" operator="arithmetic" k2="-1" k3="1" />
            <feColorMatrix type="matrix" values="0 0 0 0 1 0 0 0 0 1 0 0 0 0 1 0 0 0 0.7 0" />
            <feBlend mode="overlay" in2="effect3_innerShadow_622_423"
                result="effect4_innerShadow_622_423" />
            <feColorMatrix in="SourceAlpha" type="matrix"
                values="0 0 0 0 0 0 0 0 0 0 0 0 0 0 0 0 0 0 127 0" result="hardAlpha" />
            <feOffset dy="-40" />
            <feGaussianBlur stdDeviation="10" />
            <feComposite in2="hardAlpha" operator="arithmetic" k2="-1" k3="1" />
            <feColorMatrix type="matrix" values="0 0 0 0 0 0 0 0 0 0 0 0 0 0 0 0 0 0 0.15 0" />
            <feBlend mode="overlay" in2="effect4_innerShadow_622_423"
                result="effect5_innerShadow_622_423" />
            <feColorMatrix in="SourceAlpha" type="matrix"
                values="0 0 0 0 0 0 0 0 0 0 0 0 0 0 0 0 0 0 127 0" result="hardAlpha" />
            <feOffset dy="20" />
            <feGaussianBlur stdDeviation="10" />
            <feComposite in2="hardAlpha" operator="arithmetic" k2="-1" k3="1" />
            <feColorMatrix type="matrix" values="0 0 0 0 1 0 0 0 0 1 0 0 0 0 1 0 0 0 0.25 0" />
            <feBlend mode="overlay" in2="effect5_innerShadow_622_423"
                result="effect6_innerShadow_622_423" />
        </filter>
        <filter id="filter3_iiiii_622_423" x="140" y="-14" width="204" height="145"
            filterUnits="userSpaceOnUse" color-interpolation-filters="sRGB">
            <feFlood flood-opacity="0" result="BackgroundImageFix" />
            <feBlend mode="normal" in="SourceGraphic" in2="BackgroundImageFix" result="shape" />
            <feColorMatrix in="SourceAlpha" type="matrix"
                values="0 0 0 0 0 0 0 0 0 0 0 0 0 0 0 0 0 0 127 0" result="hardAlpha" />
            <feOffset dy="54" />
            <feGaussianBlur stdDeviation="20" />
            <feComposite in2="hardAlpha" operator="arithmetic" k2="-1" k3="1" />
            <feColorMatrix type="matrix" values="0 0 0 0 1 0 0 0 0 1 0 0 0 0 1 0 0 0 0.5 0" />
            <feBlend mode="overlay" in2="shape" result="effect1_innerShadow_622_423" />
            <feColorMatrix in="SourceAlpha" type="matrix"
                values="0 0 0 0 0 0 0 0 0 0 0 0 0 0 0 0 0 0 127 0" result="hardAlpha" />
            <feOffset dy="-30" />
            <feGaussianBlur stdDeviation="30" />
            <feComposite in2="hardAlpha" operator="arithmetic" k2="-1" k3="1" />
            <feColorMatrix type="matrix" values="0 0 0 0 0 0 0 0 0 0 0 0 0 0 0 0 0 0 0.5 0" />
            <feBlend mode="overlay" in2="effect1_innerShadow_622_423"
                result="effect2_innerShadow_622_423" />
            <feColorMatrix in="SourceAlpha" type="matrix"
                values="0 0 0 0 0 0 0 0 0 0 0 0 0 0 0 0 0 0 127 0" result="hardAlpha" />
            <feOffset dy="5" />
            <feGaussianBlur stdDeviation="5" />
            <feComposite in2="hardAlpha" operator="arithmetic" k2="-1" k3="1" />
            <feColorMatrix type="matrix" values="0 0 0 0 1 0 0 0 0 1 0 0 0 0 1 0 0 0 0.5 0" />
            <feBlend mode="overlay" in2="effect2_innerShadow_622_423"
                result="effect3_innerShadow_622_423" />
            <feColorMatrix in="SourceAlpha" type="matrix"
                values="0 0 0 0 0 0 0 0 0 0 0 0 0 0 0 0 0 0 127 0" result="hardAlpha" />
            <feOffset dy="-134" />
            <feGaussianBlur stdDeviation="15.5" />
            <feComposite in2="hardAlpha" operator="arithmetic" k2="-1" k3="1" />
            <feColorMatrix type="matrix" values="0 0 0 0 0 0 0 0 0 0 0 0 0 0 0 0 0 0 0.15 0" />
            <feBlend mode="overlay" in2="effect3_innerShadow_622_423"
                result="effect4_innerShadow_622_423" />
            <feColorMatrix in="SourceAlpha" type="matrix"
                values="0 0 0 0 0 0 0 0 0 0 0 0 0 0 0 0 0 0 127 0" result="hardAlpha" />
            <feOffset dy="20" />
            <feGaussianBlur stdDeviation="10" />
            <feComposite in2="hardAlpha" operator="arithmetic" k2="-1" k3="1" />
            <feColorMatrix type="matrix" values="0 0 0 0 1 0 0 0 0 1 0 0 0 0 1 0 0 0 0.25 0" />
            <feBlend mode="overlay" in2="effect4_innerShadow_622_423"
                result="effect5_innerShadow_622_423" />
        </filter>
    </defs>
</svg>