<?xml version="1.0" encoding="utf-8"?>
<!-- Generator: Adobe Illustrator 26.4.1, SVG Export Plug-In . SVG Version: 6.00 Build 0)  -->
<svg version="1.1" id="Layer_1" xmlns="http://www.w3.org/2000/svg" xmlns:xlink="http://www.w3.org/1999/xlink" x="0px" y="0px"
	 viewBox="0 0 96 96" style="enable-background:new 0 0 96 96;" xml:space="preserve">
<style type="text/css">
	.st0{fill:#E5E7EB;}
	.st1{fill:#171717;}
</style>
<path class="st0" d="M48,95.5L48,95.5C21.77,95.5,0.5,74.23,0.5,48v0C0.5,21.77,21.77,0.5,48,0.5h0c26.23,0,47.5,21.27,47.5,47.5v0
	C95.5,74.23,74.23,95.5,48,95.5z"/>
<g>
	<path class="st1" d="M70.79,16.04c4.66,2.36,8.25,5.67,10.77,9.94c2.52,4.27,3.78,9.18,3.78,14.75c0,4.51-0.78,8.69-2.35,12.56
		c-1.56,3.87-3.87,6.96-6.92,9.26c-3.05,2.31-6.67,3.46-10.85,3.46c-2.81,0-5.13-0.56-6.96-1.67c-1.83-1.11-3.06-2.68-3.7-4.69
		c-1.48,2.07-3.39,3.67-5.72,4.81c-2.33,1.14-4.88,1.71-7.63,1.71c-3.92,0-7.01-1.18-9.26-3.54c-2.25-2.36-3.38-5.58-3.38-9.66
		c0-3.87,0.79-7.51,2.39-10.93c1.59-3.42,3.79-6.16,6.6-8.23c2.81-2.07,5.96-3.1,9.46-3.1c4.45,0,7.47,1.59,9.06,4.77l0.72-4.21
		h10.97l-3.5,19.96c-0.16,0.95-0.24,1.8-0.24,2.54c0,2.33,1.03,3.5,3.1,3.5c2.54,0,4.49-1.63,5.84-4.89
		C74.33,49.11,75,45.36,75,41.12c0-6.09-1.92-10.87-5.76-14.31c-3.84-3.44-9.24-5.17-16.18-5.17c-5.94,0-11.33,1.43-16.18,4.29
		c-4.85,2.86-8.65,6.77-11.41,11.73c-2.76,4.96-4.13,10.4-4.13,16.34c0,6.41,1.87,11.4,5.61,14.95c3.74,3.55,8.97,5.33,15.7,5.33
		c5.25,0,9.94-0.95,14.07-2.86l2.15,8.67c-5.19,2.28-11.02,3.42-17.49,3.42c-6.04,0-11.36-1.17-15.94-3.5
		c-4.59-2.33-8.12-5.64-10.61-9.94c-2.49-4.29-3.74-9.3-3.74-15.03c0-8,1.88-15.25,5.64-21.74c3.76-6.49,8.94-11.58,15.54-15.26
		c6.6-3.68,13.98-5.53,22.14-5.53C60.66,12.5,66.12,13.68,70.79,16.04z M49.84,55.03c1.3-0.9,2.33-2.11,3.1-3.62
		c0.77-1.51,1.15-3.14,1.15-4.89c0-1.8-0.5-3.27-1.51-4.41c-1.01-1.14-2.39-1.71-4.13-1.71c-2.33,0-4.27,1.01-5.8,3.02
		c-1.54,2.01-2.31,4.4-2.31,7.16c0,1.75,0.45,3.15,1.35,4.21c0.9,1.06,2.23,1.59,3.97,1.59C47.15,56.39,48.54,55.94,49.84,55.03z"/>
</g>
</svg>
